REM DIRINDEX 1\2,1\3\7,1\3\8,1\4\9,1\4\10,1\4\11,1\5\12,1\5\13,1\5\14,1\6\15,1\6\16,1\6\17
REM DIRNAME "folder01","folder02","folder03","folder04","folder05","folder06","folder07","folder08","folder09","folder10","folder11","folder12","folder13","folder14","folder15","folder16","folder17"
TITLE ""
FILE "2Q_t_0553-0570.mp3" MP3
  TRACK 01 AUDIO
    TITLE "7:cjc174_2864"
    INDEX 01 00:00:00
  TRACK 02 AUDIO
    TITLE "0:"
    INDEX 01 00:01:06
  TRACK 03 AUDIO
    TITLE "8:cjc174_2865"
    INDEX 01 00:01:53
  TRACK 04 AUDIO
    TITLE "0:"
    INDEX 01 00:02:48
  TRACK 05 AUDIO
    TITLE "7:cjc174_2866"
    INDEX 01 00:03:18
  TRACK 06 AUDIO
    TITLE "0:"
    INDEX 01 00:04:47
  TRACK 07 AUDIO
    TITLE "8:cjc174_2867"
    INDEX 01 00:05:29
  TRACK 08 AUDIO
    TITLE "0:"
    INDEX 01 00:06:40
  TRACK 09 AUDIO
    TITLE "7:cjc174_2868"
    INDEX 01 00:07:10
  TRACK 10 AUDIO
    TITLE "0:"
    INDEX 01 00:08:24
  TRACK 11 AUDIO
    TITLE "8:cjc174_2869"
    INDEX 01 00:09:03
  TRACK 12 AUDIO
    TITLE "0:"
    INDEX 01 00:11:06
  TRACK 13 AUDIO
    TITLE "7:cjc174_2870"
    INDEX 01 00:11:51
  TRACK 14 AUDIO
    TITLE "0:"
    INDEX 01 00:12:61
  TRACK 15 AUDIO
    TITLE "8:cjc174_2871"
    INDEX 01 00:13:29
  TRACK 16 AUDIO
    TITLE "0:"
    INDEX 01 00:14:46
  TRACK 17 AUDIO
    TITLE "7:cjc174_2872"
    INDEX 01 00:15:16
  TRACK 18 AUDIO
    TITLE "0:"
    INDEX 01 00:16:50
  TRACK 19 AUDIO
    TITLE "8:cjc174_2873"
    INDEX 01 00:17:21
  TRACK 20 AUDIO
    TITLE "0:"
    INDEX 01 00:19:64
  TRACK 21 AUDIO
    TITLE "7:cjc174_2874"
    INDEX 01 00:20:37
  TRACK 22 AUDIO
    TITLE "0:"
    INDEX 01 00:21:58
  TRACK 23 AUDIO
    TITLE "8:cjc174_2875"
    INDEX 01 00:22:30
  TRACK 24 AUDIO
    TITLE "0:"
    INDEX 01 00:23:33
  TRACK 25 AUDIO
    TITLE "7:cjc174_2876"
    INDEX 01 00:24:03
  TRACK 26 AUDIO
    TITLE "0:"
    INDEX 01 00:25:24
  TRACK 27 AUDIO
    TITLE "8:cjc174_2877"
    INDEX 01 00:25:73
  TRACK 28 AUDIO
    TITLE "0:"
    INDEX 01 00:27:17
  TRACK 29 AUDIO
    TITLE "7:cjc174_2878"
    INDEX 01 00:27:62
  TRACK 30 AUDIO
    TITLE "0:"
    INDEX 01 00:29:20
  TRACK 31 AUDIO
    TITLE "8:cjc174_2879"
    INDEX 01 00:29:67
  TRACK 32 AUDIO
    TITLE "0:"
    INDEX 01 00:31:13
  TRACK 33 AUDIO
    TITLE "7:cjc174_2880"
    INDEX 01 00:31:56
  TRACK 34 AUDIO
    TITLE "0:"
    INDEX 01 00:33:04
  TRACK 35 AUDIO
    TITLE "8:cjc174_2881"
    INDEX 01 00:33:53
  TRACK 36 AUDIO
    TITLE "0:"
    INDEX 01 00:35:67
  TRACK 37 AUDIO
    TITLE "7:cjc174_2882"
    INDEX 01 00:36:36
  TRACK 38 AUDIO
    TITLE "0:"
    INDEX 01 00:37:41
  TRACK 39 AUDIO
    TITLE "8:cjc174_2883"
    INDEX 01 00:38:13
  TRACK 40 AUDIO
    TITLE "0:"
    INDEX 01 00:40:22
  TRACK 41 AUDIO
    TITLE "7:cjc174_2884"
    INDEX 01 00:40:69
  TRACK 42 AUDIO
    TITLE "0:"
    INDEX 01 00:41:72
  TRACK 43 AUDIO
    TITLE "8:cjc174_2885"
    INDEX 01 00:42:46
  TRACK 44 AUDIO
    TITLE "0:"
    INDEX 01 00:45:56
  TRACK 45 AUDIO
    TITLE "7:cjc174_2886"
    INDEX 01 00:46:24
  TRACK 46 AUDIO
    TITLE "0:"
    INDEX 01 00:47:55
  TRACK 47 AUDIO
    TITLE "8:cjc174_2887"
    INDEX 01 00:48:27
  TRACK 48 AUDIO
    TITLE "0:"
    INDEX 01 00:49:44
  TRACK 49 AUDIO
    TITLE "7:cjc174_2888"
    INDEX 01 00:50:14
  TRACK 50 AUDIO
    TITLE "0:"
    INDEX 01 00:51:35
  TRACK 51 AUDIO
    TITLE "8:cjc174_2889"
    INDEX 01 00:52:05
  TRACK 52 AUDIO
    TITLE "0:"
    INDEX 01 00:54:35
  TRACK 53 AUDIO
    TITLE "7:cjc174_2890"
    INDEX 01 00:55:05
  TRACK 54 AUDIO
    TITLE "0:"
    INDEX 01 00:56:32
  TRACK 55 AUDIO
    TITLE "8:cjc174_2891"
    INDEX 01 00:57:08
  TRACK 56 AUDIO
    TITLE "0:"
    INDEX 01 00:58:37
  TRACK 57 AUDIO
    TITLE "7:cjc174_2892"
    INDEX 01 00:59:07
  TRACK 58 AUDIO
    TITLE "0:"
    INDEX 01 01:00:18
  TRACK 59 AUDIO
    TITLE "8:cjc174_2893"
    INDEX 01 01:00:71
  TRACK 60 AUDIO
    TITLE "0:"
    INDEX 01 01:03:07
  TRACK 61 AUDIO
    TITLE "7:cjc174_2894"
    INDEX 01 01:03:52
  TRACK 62 AUDIO
    TITLE "0:"
    INDEX 01 01:04:65
  TRACK 63 AUDIO
    TITLE "8:cjc174_2895"
    INDEX 01 01:05:37
  TRACK 64 AUDIO
    TITLE "0:"
    INDEX 01 01:06:48
  TRACK 65 AUDIO
    TITLE "7:cjc174_2896"
    INDEX 01 01:07:18
  TRACK 66 AUDIO
    TITLE "0:"
    INDEX 01 01:08:18
  TRACK 67 AUDIO
    TITLE "8:cjc174_2897"
    INDEX 01 01:08:69
  TRACK 68 AUDIO
    TITLE "0:"
    INDEX 01 01:11:12
  TRACK 69 AUDIO
    TITLE "7:cjc174_2898"
    INDEX 01 01:11:59
  TRACK 70 AUDIO
    TITLE "0:"
    INDEX 01 01:12:55
  TRACK 71 AUDIO
    TITLE "8:cjc174_2899"
    INDEX 01 01:13:29
  TRACK 72 AUDIO
    TITLE "0:"
    INDEX 01 01:17:46
